<?xml version="1.0" standalone="no"?>
<!DOCTYPE svg PUBLIC "-//W3C//DTD SVG 20010904//EN"
 "http://www.w3.org/TR/2001/REC-SVG-20010904/DTD/svg10.dtd">
<svg version="1.0" xmlns="http://www.w3.org/2000/svg"
 width="600.000000pt" height="600.000000pt" viewBox="0 0 600.000000 600.000000"
 preserveAspectRatio="xMidYMid meet">
<metadata>
Created by potrace 1.11, written by Peter Selinger 2001-2013
</metadata>
<g transform="translate(0.000000,600.000000) scale(0.100000,-0.100000)"
fill="#000000" stroke="none">
<path d="M0 3000 l0 -3000 1250 0 1250 0 0 2505 c0 1789 3 2519 11 2557 47
226 259 398 489 398 230 0 442 -172 489 -398 8 -38 11 -768 11 -2557 l0 -2505
1250 0 1250 0 0 3000 0 3000 -3000 0 -3000 0 0 -3000z"/>
<path d="M2930 5231 c-51 -16 -87 -41 -129 -86 -52 -57 -86 -129 -101 -215 -8
-46 -10 -482 -8 -1470 l3 -1405 22 -57 c32 -84 77 -144 140 -186 49 -32 65
-37 127 -40 139 -7 239 69 299 226 l22 57 3 1405 c2 988 0 1424 -8 1470 -22
126 -92 234 -185 282 -43 22 -144 33 -185 19z"/>
</g>
</svg>
