<?xml version="1.0" standalone="no"?>
<!DOCTYPE svg PUBLIC "-//W3C//DTD SVG 20010904//EN"
 "http://www.w3.org/TR/2001/REC-SVG-20010904/DTD/svg10.dtd">
<svg version="1.0" xmlns="http://www.w3.org/2000/svg"
 width="600.000000pt" height="600.000000pt" viewBox="0 0 600.000000 600.000000"
 preserveAspectRatio="xMidYMid meet">
<metadata>
Created by potrace 1.11, written by Peter Selinger 2001-2013
</metadata>
<g transform="translate(0.000000,600.000000) scale(0.100000,-0.100000)"
fill="#000000" stroke="none">
<path d="M0 3000 l0 -3000 825 0 825 0 0 3000 0 3000 -825 0 -825 0 0 -3000z"/>
<path d="M2170 4518 c0 -1020 4 -1511 11 -1573 47 -383 270 -661 606 -757 112
-32 314 -32 426 0 336 96 559 374 606 757 7 62 11 553 11 1573 l0 1482 -830 0
-830 0 0 -1482z"/>
<path d="M4350 3000 l0 -3000 825 0 825 0 0 3000 0 3000 -825 0 -825 0 0
-3000z"/>
</g>
</svg>
